<svg xmlns="http://www.w3.org/2000/svg" viewBox="0 0 17 15" width="17" height="15" shape-rendering="crispEdges"><!-- relic stamp for the bag, double resolution --><path fill="#5a2a06" d="M8 0h1v1h-1zM7 1h1v1h-1zM9 1h1v1h-1zM6 2h1v1h-1zM10 2h1v1h-1zM6 3h1v1h-1zM10 3h1v1h-1zM5 4h1v1h-1zM11 4h1v1h-1zM5 5h1v1h-1zM11 5h1v1h-1zM4 6h1v1h-1zM12 6h1v1h-1zM4 7h1v1h-1zM12 7h1v1h-1zM3 8h1v1h-1zM13 8h1v1h-1zM2 9h1v1h-1zM14 9h1v1h-1zM2 10h1v1h-1zM14 10h1v1h-1zM1 11h1v1h-1zM15 11h1v1h-1zM1 12h1v1h-1zM15 12h1v1h-1zM0 13h1v1h-1zM16 13h1v1h-1zM1 14h15v1h-15z"/><path fill="#ffb509" d="M8 1h1v1h-1zM8 2h1v1h-1zM8 3h1v1h-1zM9 4h1v1h-1zM8 5h2v1h-2zM8 6h2v1h-2zM8 7h2v1h-2zM7 8h4v1h-4zM7 11h4v1h-4z"/><path fill="#ffdb49" d="M7 2h1v1h-1zM7 3h1v1h-1zM6 4h2v1h-2zM6 5h1v1h-1zM5 6h3v1h-3zM5 7h3v1h-3zM4 8h3v1h-3zM3 9h11v1h-11zM3 10h11v1h-11zM2 11h5v1h-5z"/><path fill="#e88a10" d="M9 2h1v1h-1zM9 3h1v1h-1zM10 4h1v1h-1zM10 5h1v1h-1zM10 6h2v1h-2zM10 7h2v1h-2zM11 8h2v1h-2zM11 11h4v1h-4z"/><path fill="#fff3b0" d="M8 4h1v1h-1zM7 5h1v1h-1z"/><path fill="#c13600" d="M2 12h13v1h-13zM1 13h15v1h-15z"/></svg>
