<svg xmlns="http://www.w3.org/2000/svg" viewBox="0 0 16 16" width="16" height="16" shape-rendering="crispEdges">
<rect x="7" y="0" width="2" height="1" fill="#2f2e2d"/>
<rect x="5" y="1" width="2" height="1" fill="#2f2e2d"/>
<rect x="7" y="1" width="2" height="1" fill="#de6363"/>
<rect x="9" y="1" width="2" height="1" fill="#2f2e2d"/>
<rect x="3" y="2" width="3" height="1" fill="#2f2e2d"/>
<rect x="6" y="2" width="4" height="1" fill="#de6363"/>
<rect x="10" y="2" width="3" height="1" fill="#2f2e2d"/>
<rect x="2" y="3" width="1" height="1" fill="#2f2e2d"/>
<rect x="3" y="3" width="2" height="1" fill="#f5de82"/>
<rect x="5" y="3" width="2" height="1" fill="#2f2e2d"/>
<rect x="7" y="3" width="2" height="1" fill="#de6363"/>
<rect x="9" y="3" width="2" height="1" fill="#2f2e2d"/>
<rect x="11" y="3" width="2" height="1" fill="#86c35a"/>
<rect x="13" y="3" width="1" height="1" fill="#2f2e2d"/>
<rect x="1" y="4" width="1" height="1" fill="#2f2e2d"/>
<rect x="2" y="4" width="4" height="1" fill="#f5de82"/>
<rect x="6" y="4" width="1" height="1" fill="#2f2e2d"/>
<rect x="7" y="4" width="2" height="1" fill="#de6363"/>
<rect x="9" y="4" width="1" height="1" fill="#2f2e2d"/>
<rect x="10" y="4" width="4" height="1" fill="#86c35a"/>
<rect x="14" y="4" width="1" height="1" fill="#2f2e2d"/>
<rect x="0" y="5" width="1" height="1" fill="#2f2e2d"/>
<rect x="1" y="5" width="2" height="1" fill="#f5de82"/>
<rect x="3" y="5" width="2" height="1" fill="#2f2e2d"/>
<rect x="5" y="5" width="2" height="1" fill="#f5de82"/>
<rect x="7" y="5" width="2" height="1" fill="#2f2e2d"/>
<rect x="9" y="5" width="2" height="1" fill="#86c35a"/>
<rect x="11" y="5" width="2" height="1" fill="#2f2e2d"/>
<rect x="13" y="5" width="2" height="1" fill="#86c35a"/>
<rect x="15" y="5" width="1" height="1" fill="#2f2e2d"/>
<rect x="0" y="6" width="1" height="1" fill="#2f2e2d"/>
<rect x="1" y="6" width="1" height="1" fill="#f5de82"/>
<rect x="2" y="6" width="1" height="1" fill="#2f2e2d"/>
<rect x="3" y="6" width="2" height="1" fill="#5273ce"/>
<rect x="5" y="6" width="1" height="1" fill="#2f2e2d"/>
<rect x="6" y="6" width="1" height="1" fill="#f5de82"/>
<rect x="7" y="6" width="2" height="1" fill="#2f2e2d"/>
<rect x="9" y="6" width="1" height="1" fill="#86c35a"/>
<rect x="10" y="6" width="1" height="1" fill="#2f2e2d"/>
<rect x="11" y="6" width="2" height="1" fill="#b594ff"/>
<rect x="13" y="6" width="1" height="1" fill="#2f2e2d"/>
<rect x="14" y="6" width="1" height="1" fill="#86c35a"/>
<rect x="15" y="6" width="1" height="1" fill="#2f2e2d"/>
<rect x="0" y="7" width="2" height="1" fill="#2f2e2d"/>
<rect x="2" y="7" width="4" height="1" fill="#5273ce"/>
<rect x="6" y="7" width="1" height="1" fill="#2f2e2d"/>
<rect x="9" y="7" width="1" height="1" fill="#2f2e2d"/>
<rect x="10" y="7" width="4" height="1" fill="#b594ff"/>
<rect x="14" y="7" width="2" height="1" fill="#2f2e2d"/>
<rect x="0" y="8" width="1" height="1" fill="#2f2e2d"/>
<rect x="1" y="8" width="6" height="1" fill="#5273ce"/>
<rect x="7" y="8" width="2" height="1" fill="#2f2e2d"/>
<rect x="9" y="8" width="6" height="1" fill="#b594ff"/>
<rect x="15" y="8" width="1" height="1" fill="#2f2e2d"/>
<rect x="0" y="9" width="1" height="1" fill="#2f2e2d"/>
<rect x="1" y="9" width="4" height="1" fill="#5273ce"/>
<rect x="5" y="9" width="2" height="1" fill="#2f2e2d"/>
<rect x="7" y="9" width="2" height="1" fill="#f7a56b"/>
<rect x="9" y="9" width="2" height="1" fill="#2f2e2d"/>
<rect x="11" y="9" width="4" height="1" fill="#b594ff"/>
<rect x="15" y="9" width="1" height="1" fill="#2f2e2d"/>
<rect x="1" y="10" width="1" height="1" fill="#2f2e2d"/>
<rect x="2" y="10" width="3" height="1" fill="#5273ce"/>
<rect x="5" y="10" width="1" height="1" fill="#2f2e2d"/>
<rect x="6" y="10" width="4" height="1" fill="#f7a56b"/>
<rect x="10" y="10" width="1" height="1" fill="#2f2e2d"/>
<rect x="11" y="10" width="3" height="1" fill="#b594ff"/>
<rect x="14" y="10" width="1" height="1" fill="#2f2e2d"/>
<rect x="2" y="11" width="1" height="1" fill="#2f2e2d"/>
<rect x="3" y="11" width="1" height="1" fill="#5273ce"/>
<rect x="4" y="11" width="1" height="1" fill="#2f2e2d"/>
<rect x="5" y="11" width="6" height="1" fill="#f7a56b"/>
<rect x="11" y="11" width="1" height="1" fill="#2f2e2d"/>
<rect x="12" y="11" width="1" height="1" fill="#b594ff"/>
<rect x="13" y="11" width="1" height="1" fill="#2f2e2d"/>
<rect x="3" y="12" width="2" height="1" fill="#2f2e2d"/>
<rect x="5" y="12" width="6" height="1" fill="#f7a56b"/>
<rect x="11" y="12" width="2" height="1" fill="#2f2e2d"/>
<rect x="5" y="13" width="1" height="1" fill="#2f2e2d"/>
<rect x="6" y="13" width="4" height="1" fill="#f7a56b"/>
<rect x="10" y="13" width="1" height="1" fill="#2f2e2d"/>
<rect x="5" y="14" width="2" height="1" fill="#2f2e2d"/>
<rect x="7" y="14" width="2" height="1" fill="#f7a56b"/>
<rect x="9" y="14" width="2" height="1" fill="#2f2e2d"/>
<rect x="7" y="15" width="2" height="1" fill="#2f2e2d"/>
</svg>
