<svg xmlns="http://www.w3.org/2000/svg" viewBox="0 0 16 16" width="16" height="16" shape-rendering="crispEdges">
<rect x="9" y="0" width="2" height="1" fill="#2f2e2d"/>
<rect x="9" y="1" width="1" height="1" fill="#2f2e2d"/>
<rect x="10" y="1" width="1" height="1" fill="#4a9431"/>
<rect x="11" y="1" width="2" height="1" fill="#2f2e2d"/>
<rect x="9" y="2" width="1" height="1" fill="#2f2e2d"/>
<rect x="10" y="2" width="2" height="1" fill="#4a9431"/>
<rect x="12" y="2" width="1" height="1" fill="#2f2e2d"/>
<rect x="7" y="3" width="4" height="1" fill="#2f2e2d"/>
<rect x="11" y="3" width="1" height="1" fill="#86c35a"/>
<rect x="12" y="3" width="1" height="1" fill="#2f2e2d"/>
<rect x="6" y="4" width="1" height="1" fill="#2f2e2d"/>
<rect x="7" y="4" width="2" height="1" fill="#86c35a"/>
<rect x="9" y="4" width="1" height="1" fill="#4a9431"/>
<rect x="10" y="4" width="1" height="1" fill="#86c35a"/>
<rect x="11" y="4" width="1" height="1" fill="#2f2e2d"/>
<rect x="5" y="5" width="1" height="1" fill="#2f2e2d"/>
<rect x="6" y="5" width="1" height="1" fill="#86c35a"/>
<rect x="7" y="5" width="2" height="1" fill="#4a9431"/>
<rect x="9" y="5" width="1" height="1" fill="#86c35a"/>
<rect x="10" y="5" width="1" height="1" fill="#2f2e2d"/>
<rect x="4" y="6" width="2" height="1" fill="#2f2e2d"/>
<rect x="6" y="6" width="1" height="1" fill="#4a9431"/>
<rect x="7" y="6" width="1" height="1" fill="#000000"/>
<rect x="8" y="6" width="1" height="1" fill="#ffffff"/>
<rect x="9" y="6" width="1" height="1" fill="#4a9431"/>
<rect x="10" y="6" width="2" height="1" fill="#2f2e2d"/>
<rect x="2" y="7" width="2" height="1" fill="#2f2e2d"/>
<rect x="4" y="7" width="1" height="1" fill="#ffa200"/>
<rect x="5" y="7" width="1" height="1" fill="#ffd639"/>
<rect x="6" y="7" width="1" height="1" fill="#2f2e2d"/>
<rect x="7" y="7" width="1" height="1" fill="#4a9431"/>
<rect x="8" y="7" width="1" height="1" fill="#86c35a"/>
<rect x="9" y="7" width="1" height="1" fill="#2f2e2d"/>
<rect x="10" y="7" width="1" height="1" fill="#4a9431"/>
<rect x="11" y="7" width="1" height="1" fill="#2f2e2d"/>
<rect x="1" y="8" width="1" height="1" fill="#2f2e2d"/>
<rect x="2" y="8" width="2" height="1" fill="#ffa200"/>
<rect x="4" y="8" width="1" height="1" fill="#ffd639"/>
<rect x="5" y="8" width="4" height="1" fill="#2f2e2d"/>
<rect x="9" y="8" width="1" height="1" fill="#4a9431"/>
<rect x="10" y="8" width="1" height="1" fill="#86c35a"/>
<rect x="11" y="8" width="1" height="1" fill="#2f2e2d"/>
<rect x="0" y="9" width="1" height="1" fill="#2f2e2d"/>
<rect x="1" y="9" width="2" height="1" fill="#ffa200"/>
<rect x="3" y="9" width="2" height="1" fill="#2f2e2d"/>
<rect x="7" y="9" width="1" height="1" fill="#2f2e2d"/>
<rect x="8" y="9" width="1" height="1" fill="#4a9431"/>
<rect x="9" y="9" width="2" height="1" fill="#86c35a"/>
<rect x="11" y="9" width="1" height="1" fill="#2f2e2d"/>
<rect x="1" y="10" width="2" height="1" fill="#2f2e2d"/>
<rect x="7" y="10" width="1" height="1" fill="#2f2e2d"/>
<rect x="8" y="10" width="3" height="1" fill="#86c35a"/>
<rect x="11" y="10" width="1" height="1" fill="#4a9431"/>
<rect x="12" y="10" width="1" height="1" fill="#2f2e2d"/>
<rect x="7" y="11" width="1" height="1" fill="#2f2e2d"/>
<rect x="8" y="11" width="4" height="1" fill="#86c35a"/>
<rect x="12" y="11" width="1" height="1" fill="#2f2e2d"/>
<rect x="6" y="12" width="1" height="1" fill="#2f2e2d"/>
<rect x="7" y="12" width="1" height="1" fill="#4a9431"/>
<rect x="8" y="12" width="4" height="1" fill="#86c35a"/>
<rect x="12" y="12" width="1" height="1" fill="#4a9431"/>
<rect x="13" y="12" width="1" height="1" fill="#2f2e2d"/>
<rect x="5" y="13" width="1" height="1" fill="#2f2e2d"/>
<rect x="6" y="13" width="1" height="1" fill="#4a9431"/>
<rect x="7" y="13" width="3" height="1" fill="#86c35a"/>
<rect x="10" y="13" width="1" height="1" fill="#4a9431"/>
<rect x="11" y="13" width="2" height="1" fill="#86c35a"/>
<rect x="13" y="13" width="1" height="1" fill="#4a9431"/>
<rect x="14" y="13" width="2" height="1" fill="#2f2e2d"/>
<rect x="6" y="14" width="1" height="1" fill="#2f2e2d"/>
<rect x="7" y="14" width="1" height="1" fill="#4a9431"/>
<rect x="8" y="14" width="2" height="1" fill="#86c35a"/>
<rect x="10" y="14" width="3" height="1" fill="#4a9431"/>
<rect x="13" y="14" width="2" height="1" fill="#2f2e2d"/>
<rect x="7" y="15" width="6" height="1" fill="#2f2e2d"/>
</svg>
