<svg xmlns="http://www.w3.org/2000/svg" viewBox="0 0 7 8" width="7" height="8" shape-rendering="crispEdges">
<rect x="2" y="0" width="3" height="1" fill="#282828"/>
<rect x="2" y="1" width="1" height="1" fill="#282828"/>
<rect x="3" y="1" width="1" height="1" fill="#f8f8f8"/>
<rect x="4" y="1" width="1" height="1" fill="#282828"/>
<rect x="1" y="2" width="5" height="1" fill="#282828"/>
<rect x="0" y="3" width="1" height="1" fill="#282828"/>
<rect x="1" y="3" width="1" height="1" fill="#f8f8f8"/>
<rect x="2" y="3" width="4" height="1" fill="#489030"/>
<rect x="6" y="3" width="1" height="1" fill="#282828"/>
<rect x="0" y="4" width="1" height="1" fill="#282828"/>
<rect x="1" y="4" width="5" height="1" fill="#489030"/>
<rect x="6" y="4" width="1" height="1" fill="#282828"/>
<rect x="0" y="5" width="1" height="1" fill="#282828"/>
<rect x="1" y="5" width="2" height="1" fill="#489030"/>
<rect x="3" y="5" width="1" height="1" fill="#98d070"/>
<rect x="4" y="5" width="2" height="1" fill="#489030"/>
<rect x="6" y="5" width="1" height="1" fill="#282828"/>
<rect x="0" y="6" width="1" height="1" fill="#282828"/>
<rect x="1" y="6" width="5" height="1" fill="#489030"/>
<rect x="6" y="6" width="1" height="1" fill="#282828"/>
<rect x="1" y="7" width="5" height="1" fill="#282828"/>
</svg>
