<svg xmlns="http://www.w3.org/2000/svg" viewBox="0 0 35 23" width="35" height="23" shape-rendering="crispEdges"><!-- mascot body, face bare under the visor --><path fill="#000000" d="M16 0h3v1h-3zM15 1h1v1h-1zM19 1h1v1h-1zM15 2h1v1h-1zM19 2h1v1h-1zM14 3h1v1h-1zM20 3h1v1h-1zM13 4h1v1h-1zM21 4h1v1h-1zM12 5h1v1h-1zM22 5h1v1h-1zM12 6h1v1h-1zM22 6h1v1h-1zM11 7h1v1h-1zM23 7h1v1h-1zM10 8h1v1h-1zM24 8h1v1h-1zM9 9h1v1h-1zM25 9h1v1h-1zM9 10h1v1h-1zM25 10h1v1h-1zM8 11h1v1h-1zM26 11h1v1h-1zM7 12h1v1h-1zM27 12h1v1h-1zM7 13h1v1h-1zM27 13h1v1h-1zM6 14h1v1h-1zM28 14h1v1h-1zM5 15h1v1h-1zM29 15h1v1h-1zM4 16h1v1h-1zM30 16h1v1h-1zM4 17h1v1h-1zM30 17h1v1h-1zM3 18h1v1h-1zM31 18h1v1h-1zM2 19h1v1h-1zM32 19h1v1h-1zM2 20h1v1h-1zM32 20h1v1h-1zM2 21h2v1h-2zM31 21h2v1h-2zM3 22h29v1h-29z"/><path fill="#ffdb49" d="M16 1h1v1h-1zM15 3h1v1h-1zM18 3h1v1h-1zM18 4h2v1h-2zM14 5h1v1h-1zM20 6h1v1h-1zM21 7h1v1h-1zM13 8h1v1h-1zM22 8h1v1h-1zM11 9h1v1h-1zM23 9h1v1h-1zM11 10h1v1h-1zM23 10h1v1h-1zM8 14h1v1h-1zM26 14h1v1h-1zM7 15h1v1h-1zM27 15h1v1h-1zM6 16h1v1h-1zM28 16h1v1h-1zM6 17h1v1h-1zM28 17h1v1h-1zM5 18h1v1h-1zM29 18h1v1h-1zM4 19h1v1h-1zM30 19h1v1h-1z"/><path fill="#ffb509" d="M17 1h1v1h-1zM17 2h1v1h-1zM16 4h2v1h-2zM15 5h5v1h-5zM15 6h5v1h-5zM14 7h7v1h-7zM14 8h8v1h-8zM12 9h11v1h-11zM12 10h11v1h-11zM10 11h15v1h-15zM9 12h17v1h-17zM9 13h17v1h-17zM9 14h17v1h-17zM9 15h17v1h-17zM8 16h19v1h-19zM8 17h19v1h-19zM9 18h17v1h-17zM9 19h17v1h-17z"/><path fill="#ec6600" d="M18 1h1v1h-1zM18 2h1v1h-1zM19 3h1v1h-1zM20 4h1v1h-1zM21 5h1v1h-1zM21 6h1v1h-1zM12 7h1v1h-1zM22 7h1v1h-1zM11 8h1v1h-1zM23 8h1v1h-1zM10 9h1v1h-1zM24 9h1v1h-1zM10 10h1v1h-1zM24 10h1v1h-1zM9 11h1v1h-1zM25 11h1v1h-1zM8 12h1v1h-1zM26 12h1v1h-1zM8 13h1v1h-1zM26 13h1v1h-1zM7 14h1v1h-1zM27 14h1v1h-1zM6 15h1v1h-1zM28 15h1v1h-1zM5 16h1v1h-1zM29 16h1v1h-1zM5 17h1v1h-1zM29 17h1v1h-1zM4 18h1v1h-1zM6 18h1v1h-1zM28 18h1v1h-1zM30 18h1v1h-1zM5 19h2v1h-2zM28 19h2v1h-2zM4 20h1v1h-1zM6 20h23v1h-23zM30 20h1v1h-1z"/><path fill="#ffe45b" d="M16 2h1v1h-1zM16 3h2v1h-2zM15 4h1v1h-1zM20 5h1v1h-1zM14 6h1v1h-1zM13 7h1v1h-1zM12 8h1v1h-1z"/><path fill="#fe9702" d="M14 4h1v1h-1zM13 5h1v1h-1zM13 6h1v1h-1zM8 15h1v1h-1zM26 15h1v1h-1zM7 16h1v1h-1zM27 16h1v1h-1zM7 17h1v1h-1zM27 17h1v1h-1zM7 18h2v1h-2zM26 18h2v1h-2zM7 19h2v1h-2zM26 19h2v1h-2z"/><path fill="#c13600" d="M3 19h1v1h-1zM31 19h1v1h-1zM3 20h1v1h-1zM5 20h1v1h-1zM29 20h1v1h-1zM31 20h1v1h-1zM4 21h27v1h-27z"/></svg>
