<svg width="349" height="97" viewBox="0 0 349 97" fill="none" xmlns="http://www.w3.org/2000/svg">
<g filter="url(#filter0_iiif_1_651)">
<rect x="1.35913" y="1.35913" width="346" height="94" rx="46" fill="#C5C3CE"/>
</g>
<foreignObject x="152.214" y="21.5591" width="45.824" height="52.8"><div xmlns="http://www.w3.org/1999/xhtml" style="backdrop-filter:blur(0.5px);clip-path:url(#bgblur_0_1_651_clip_path);height:100%;width:100%"></div></foreignObject><g filter="url(#filter1_ii_1_651)" data-figma-bg-blur-radius="1">
<mask id="path-2-outside-1_1_651" maskUnits="userSpaceOnUse" x="154.359" y="24.3591" width="41" height="47" fill="black">
<rect fill="white" x="154.359" y="24.3591" width="41" height="47"/>
<path d="M157.814 70.3591C157.345 70.3591 156.961 70.2098 156.662 69.9111C156.363 69.6125 156.214 69.2285 156.214 68.7591V27.1591C156.214 26.6898 156.363 26.3058 156.662 26.0071C156.961 25.7085 157.345 25.5591 157.814 25.5591H175.222C180.726 25.5591 185.057 26.8391 188.214 29.3991C191.414 31.9165 193.014 35.5005 193.014 40.1511C193.014 43.1805 192.267 45.7405 190.774 47.8311C189.323 49.9218 187.403 51.5005 185.014 52.5671L193.846 68.3111C193.974 68.5671 194.038 68.8018 194.038 69.0151C194.038 69.3565 193.889 69.6765 193.59 69.9751C193.334 70.2311 193.014 70.3591 192.63 70.3591H184.182C183.371 70.3591 182.774 70.1671 182.39 69.7831C182.006 69.3565 181.729 68.9725 181.558 68.6311L174.262 54.5511H167.67V68.7591C167.67 69.2285 167.521 69.6125 167.222 69.9111C166.923 70.2098 166.539 70.3591 166.07 70.3591H157.814ZM167.67 45.5271H175.094C177.099 45.5271 178.593 45.0365 179.574 44.0551C180.598 43.0738 181.11 41.7298 181.11 40.0231C181.11 38.3591 180.619 37.0151 179.638 35.9911C178.699 34.9671 177.185 34.4551 175.094 34.4551H167.67V45.5271Z"/>
</mask>
<path d="M157.814 70.3591C157.345 70.3591 156.961 70.2098 156.662 69.9111C156.363 69.6125 156.214 69.2285 156.214 68.7591V27.1591C156.214 26.6898 156.363 26.3058 156.662 26.0071C156.961 25.7085 157.345 25.5591 157.814 25.5591H175.222C180.726 25.5591 185.057 26.8391 188.214 29.3991C191.414 31.9165 193.014 35.5005 193.014 40.1511C193.014 43.1805 192.267 45.7405 190.774 47.8311C189.323 49.9218 187.403 51.5005 185.014 52.5671L193.846 68.3111C193.974 68.5671 194.038 68.8018 194.038 69.0151C194.038 69.3565 193.889 69.6765 193.59 69.9751C193.334 70.2311 193.014 70.3591 192.63 70.3591H184.182C183.371 70.3591 182.774 70.1671 182.39 69.7831C182.006 69.3565 181.729 68.9725 181.558 68.6311L174.262 54.5511H167.67V68.7591C167.67 69.2285 167.521 69.6125 167.222 69.9111C166.923 70.2098 166.539 70.3591 166.07 70.3591H157.814ZM167.67 45.5271H175.094C177.099 45.5271 178.593 45.0365 179.574 44.0551C180.598 43.0738 181.11 41.7298 181.11 40.0231C181.11 38.3591 180.619 37.0151 179.638 35.9911C178.699 34.9671 177.185 34.4551 175.094 34.4551H167.67V45.5271Z" fill="#CFCDDA"/>
<path d="M156.662 69.9111L157.369 69.204V69.204L156.662 69.9111ZM156.662 26.0071L157.369 26.7142L157.369 26.7142L156.662 26.0071ZM188.214 29.3991L187.584 30.1759L187.59 30.1805L187.596 30.1851L188.214 29.3991ZM190.774 47.8311L189.96 47.2498L189.953 47.261L190.774 47.8311ZM185.014 52.5671L184.606 51.654L183.606 52.1007L184.142 53.0564L185.014 52.5671ZM193.846 68.3111L194.741 67.8639L194.73 67.8426L194.718 67.8219L193.846 68.3111ZM193.59 69.9751L194.297 70.6822L194.297 70.6822L193.59 69.9751ZM182.39 69.7831L181.647 70.4521L181.664 70.4716L181.683 70.4902L182.39 69.7831ZM181.558 68.6311L182.453 68.1839L182.449 68.1775L182.446 68.1711L181.558 68.6311ZM174.262 54.5511L175.15 54.091L174.87 53.5511H174.262V54.5511ZM167.67 54.5511V53.5511H166.67V54.5511H167.67ZM167.222 69.9111L166.515 69.204L167.222 69.9111ZM167.67 45.5271H166.67V46.5271H167.67V45.5271ZM179.574 44.0551L178.882 43.3331L178.875 43.3405L178.867 43.348L179.574 44.0551ZM179.638 35.9911L178.901 36.6669L178.908 36.675L178.916 36.683L179.638 35.9911ZM167.67 34.4551V33.4551H166.67V34.4551H167.67ZM157.814 70.3591V69.3591C157.578 69.3591 157.459 69.2935 157.369 69.204L156.662 69.9111L155.955 70.6182C156.463 71.1261 157.112 71.3591 157.814 71.3591V70.3591ZM156.662 69.9111L157.369 69.204C157.28 69.1146 157.214 68.9955 157.214 68.7591H156.214H155.214C155.214 69.4614 155.447 70.1104 155.955 70.6182L156.662 69.9111ZM156.214 68.7591H157.214V27.1591H156.214H155.214V68.7591H156.214ZM156.214 27.1591H157.214C157.214 26.9227 157.28 26.8037 157.369 26.7142L156.662 26.0071L155.955 25.3C155.447 25.8079 155.214 26.4569 155.214 27.1591H156.214ZM156.662 26.0071L157.369 26.7142C157.459 26.6248 157.578 26.5591 157.814 26.5591V25.5591V24.5591C157.112 24.5591 156.463 24.7922 155.955 25.3L156.662 26.0071ZM157.814 25.5591V26.5591H175.222V25.5591V24.5591H157.814V25.5591ZM175.222 25.5591V26.5591C180.578 26.5591 184.659 27.8042 187.584 30.1759L188.214 29.3991L188.844 28.6224C185.454 25.8741 180.874 24.5591 175.222 24.5591V25.5591ZM188.214 29.3991L187.596 30.1851C190.519 32.4843 192.014 35.7578 192.014 40.1511H193.014H194.014C194.014 35.2432 192.31 31.3487 188.832 28.6132L188.214 29.3991ZM193.014 40.1511H192.014C192.014 43.0104 191.312 45.3576 189.96 47.2499L190.774 47.8311L191.588 48.4124C193.223 46.1233 194.014 43.3505 194.014 40.1511H193.014ZM190.774 47.8311L189.953 47.261C188.609 49.1973 186.834 50.6595 184.606 51.654L185.014 52.5671L185.422 53.4803C187.973 52.3414 190.038 50.6463 191.596 48.4012L190.774 47.8311ZM185.014 52.5671L184.142 53.0564L192.974 68.8004L193.846 68.3111L194.718 67.8219L185.886 52.0779L185.014 52.5671ZM193.846 68.3111L192.952 68.7583C193.033 68.9207 193.038 69.0008 193.038 69.0151H194.038H195.038C195.038 68.6028 194.915 68.2135 194.741 67.8639L193.846 68.3111ZM194.038 69.0151H193.038C193.038 69.0312 193.041 69.1097 192.883 69.268L193.59 69.9751L194.297 70.6822C194.736 70.2432 195.038 69.6817 195.038 69.0151H194.038ZM193.59 69.9751L192.883 69.268C192.827 69.3242 192.767 69.3591 192.63 69.3591V70.3591V71.3591C193.261 71.3591 193.841 71.138 194.297 70.6822L193.59 69.9751ZM192.63 70.3591V69.3591H184.182V70.3591V71.3591H192.63V70.3591ZM184.182 70.3591V69.3591C183.507 69.3591 183.219 69.1974 183.097 69.076L182.39 69.7831L181.683 70.4902C182.33 71.1368 183.236 71.3591 184.182 71.3591V70.3591ZM182.39 69.7831L183.133 69.1142C182.783 68.7243 182.568 68.4154 182.453 68.1839L181.558 68.6311L180.664 69.0783C180.889 69.5295 181.23 69.9886 181.647 70.4521L182.39 69.7831ZM181.558 68.6311L182.446 68.1711L175.15 54.091L174.262 54.5511L173.374 55.0112L180.67 69.0912L181.558 68.6311ZM174.262 54.5511V53.5511H167.67V54.5511V55.5511H174.262V54.5511ZM167.67 54.5511H166.67V68.7591H167.67H168.67V54.5511H167.67ZM167.67 68.7591H166.67C166.67 68.9955 166.604 69.1146 166.515 69.204L167.222 69.9111L167.929 70.6182C168.437 70.1104 168.67 69.4614 168.67 68.7591H167.67ZM167.222 69.9111L166.515 69.204C166.426 69.2935 166.307 69.3591 166.07 69.3591V70.3591V71.3591C166.772 71.3591 167.421 71.1261 167.929 70.6182L167.222 69.9111ZM166.07 70.3591V69.3591H157.814V70.3591V71.3591H166.07V70.3591ZM167.67 45.5271V46.5271H175.094V45.5271V44.5271H167.67V45.5271ZM175.094 45.5271V46.5271C177.246 46.5271 179.043 46.0008 180.281 44.7622L179.574 44.0551L178.867 43.348C178.143 44.0721 176.953 44.5271 175.094 44.5271V45.5271ZM179.574 44.0551L180.266 44.7771C181.526 43.5695 182.11 41.9427 182.11 40.0231H181.11H180.11C180.11 41.5169 179.67 42.5781 178.882 43.3331L179.574 44.0551ZM181.11 40.0231H182.11C182.11 38.1491 181.55 36.5413 180.36 35.2992L179.638 35.9911L178.916 36.683C179.689 37.489 180.11 38.5692 180.11 40.0231H181.11ZM179.638 35.9911L180.375 35.3154C179.169 33.9995 177.323 33.4551 175.094 33.4551V34.4551V35.4551C177.046 35.4551 178.23 35.9348 178.901 36.6669L179.638 35.9911ZM175.094 34.4551V33.4551H167.67V34.4551V35.4551H175.094V34.4551ZM167.67 34.4551H166.67V45.5271H167.67H168.67V34.4551H167.67Z" fill="#C4C4C4" mask="url(#path-2-outside-1_1_651)"/>
</g>
<defs>
<filter id="filter0_iiif_1_651" x="-1.64087" y="-3.64087" width="350.359" height="102" filterUnits="userSpaceOnUse" color-interpolation-filters="sRGB">
<feFlood flood-opacity="0" result="BackgroundImageFix"/>
<feBlend mode="normal" in="SourceGraphic" in2="BackgroundImageFix" result="shape"/>
<feColorMatrix in="SourceAlpha" type="matrix" values="0 0 0 0 0 0 0 0 0 0 0 0 0 0 0 0 0 0 127 0" result="hardAlpha"/>
<feOffset dx="1"/>
<feGaussianBlur stdDeviation="3"/>
<feComposite in2="hardAlpha" operator="arithmetic" k2="-1" k3="1"/>
<feColorMatrix type="matrix" values="0 0 0 0 0.610138 0 0 0 0 0.586978 0 0 0 0 0.586978 0 0 0 0.640051 0"/>
<feBlend mode="normal" in2="shape" result="effect1_innerShadow_1_651"/>
<feColorMatrix in="SourceAlpha" type="matrix" values="0 0 0 0 0 0 0 0 0 0 0 0 0 0 0 0 0 0 127 0" result="hardAlpha"/>
<feOffset dx="-3" dy="3"/>
<feGaussianBlur stdDeviation="4"/>
<feComposite in2="hardAlpha" operator="arithmetic" k2="-1" k3="1"/>
<feColorMatrix type="matrix" values="0 0 0 0 0.969056 0 0 0 0 0.958828 0 0 0 0 0.958828 0 0 0 0.152699 0"/>
<feBlend mode="normal" in2="effect1_innerShadow_1_651" result="effect2_innerShadow_1_651"/>
<feColorMatrix in="SourceAlpha" type="matrix" values="0 0 0 0 0 0 0 0 0 0 0 0 0 0 0 0 0 0 127 0" result="hardAlpha"/>
<feOffset dx="-3" dy="-5"/>
<feGaussianBlur stdDeviation="3"/>
<feComposite in2="hardAlpha" operator="arithmetic" k2="-1" k3="1"/>
<feColorMatrix type="matrix" values="0 0 0 0 0.860346 0 0 0 0 0.860346 0 0 0 0 0.884847 0 0 0 1 0"/>
<feBlend mode="normal" in2="effect2_innerShadow_1_651" result="effect3_innerShadow_1_651"/>
<feGaussianBlur stdDeviation="0.67957" result="effect4_foregroundBlur_1_651"/>
</filter>
<filter id="filter1_ii_1_651" x="152.214" y="21.5591" width="45.824" height="52.8" filterUnits="userSpaceOnUse" color-interpolation-filters="sRGB">
<feFlood flood-opacity="0" result="BackgroundImageFix"/>
<feBlend mode="normal" in="SourceGraphic" in2="BackgroundImageFix" result="shape"/>
<feColorMatrix in="SourceAlpha" type="matrix" values="0 0 0 0 0 0 0 0 0 0 0 0 0 0 0 0 0 0 127 0" result="hardAlpha"/>
<feOffset dx="1"/>
<feGaussianBlur stdDeviation="3"/>
<feComposite in2="hardAlpha" operator="arithmetic" k2="-1" k3="1"/>
<feColorMatrix type="matrix" values="0 0 0 0 0.610138 0 0 0 0 0.586978 0 0 0 0 0.586978 0 0 0 0.640051 0"/>
<feBlend mode="normal" in2="shape" result="effect1_innerShadow_1_651"/>
<feColorMatrix in="SourceAlpha" type="matrix" values="0 0 0 0 0 0 0 0 0 0 0 0 0 0 0 0 0 0 127 0" result="hardAlpha"/>
<feOffset/>
<feGaussianBlur stdDeviation="13"/>
<feComposite in2="hardAlpha" operator="arithmetic" k2="-1" k3="1"/>
<feColorMatrix type="matrix" values="0 0 0 0 0 0 0 0 0 0 0 0 0 0 0 0 0 0 0.33 0"/>
<feBlend mode="normal" in2="effect1_innerShadow_1_651" result="effect2_innerShadow_1_651"/>
</filter>
<clipPath id="bgblur_0_1_651_clip_path" transform="translate(-152.214 -21.5591)"><path d="M157.814 70.3591C157.345 70.3591 156.961 70.2098 156.662 69.9111C156.363 69.6125 156.214 69.2285 156.214 68.7591V27.1591C156.214 26.6898 156.363 26.3058 156.662 26.0071C156.961 25.7085 157.345 25.5591 157.814 25.5591H175.222C180.726 25.5591 185.057 26.8391 188.214 29.3991C191.414 31.9165 193.014 35.5005 193.014 40.1511C193.014 43.1805 192.267 45.7405 190.774 47.8311C189.323 49.9218 187.403 51.5005 185.014 52.5671L193.846 68.3111C193.974 68.5671 194.038 68.8018 194.038 69.0151C194.038 69.3565 193.889 69.6765 193.59 69.9751C193.334 70.2311 193.014 70.3591 192.63 70.3591H184.182C183.371 70.3591 182.774 70.1671 182.39 69.7831C182.006 69.3565 181.729 68.9725 181.558 68.6311L174.262 54.5511H167.67V68.7591C167.67 69.2285 167.521 69.6125 167.222 69.9111C166.923 70.2098 166.539 70.3591 166.07 70.3591H157.814ZM167.67 45.5271H175.094C177.099 45.5271 178.593 45.0365 179.574 44.0551C180.598 43.0738 181.11 41.7298 181.11 40.0231C181.11 38.3591 180.619 37.0151 179.638 35.9911C178.699 34.9671 177.185 34.4551 175.094 34.4551H167.67V45.5271Z"/>
</clipPath></defs>
</svg>
